<svg xmlns="http://www.w3.org/2000/svg" width="459" height="80"><g><g><path fill="#ea0029" d="M66.94 29.5H53.07a6 6 0 0 0-6.18 5.77v31.38h-9.3l-.02-45.4H12.87v-9H37.6v9h29.34v8.25zM80 0H0v80h80z"/><path fill="#003da6" d="M242.92 23.5H230.4v37.34h-7.53V23.5h-12.52V17h32.57zm-53.3 11.97l16.47 25.37H197L184.66 41.8l-4.82 6.2v12.83h-7.52V16.98h7.52v20.05h.3l15.68-20.05h8.2zm-27.5 25.37h-27.58V17h26.94v6.5h-19.42v12.03h18.17v6.5h-18.17v12.3h20.05zM125.45 23.5H107.3v12.03h16.9v6.5h-16.9v18.8h-7.53V16.98h25.68v6.52zM258.72 0H82.3v79.98h176.42z"/></g><path fill="#fff" stroke="#003da6" stroke-width="2" d="M257.7 52h196v27h-196z"/><path fill="#fff" stroke="#003da6" stroke-width="2" d="M257.7 26h68v26h-68z"/><path fill="#003da6" d="M270.52 59.4h-7.74V72h7.92v-1.87h-5.76V66.6h5.22v-1.87h-5.22v-3.46h5.58zm10.08 10.73h-5.22V59.4h-2.16V72h7.38zm10-10.73h-7.75V72h7.92v-1.87H285V66.6h5.23v-1.87H285v-3.46h5.6zm7.7 5.3l4.15-5.3h-2.36l-4.5 5.76h-.1V59.4h-2.16V72h2.16v-3.7l1.4-1.77 3.54 5.47h2.6zm9.2 7.3h2.17V61.27h3.6V59.4h-9.36v1.87h3.6zm14.55 0h2.38l-2.6-4.95a2.9 2.9 0 0 0 2.24-2.97v-1.62A2.9 2.9 0 0 0 321 59.4h-5.75V72h2.16v-4.86h2.12zm-4.64-10.73h3.43a1.02 1.02 0 0 1 1.08 1.08v1.84a1.02 1.02 0 0 1-1.07 1.07h-3.42zM333.08 72a2.9 2.9 0 0 0 3.06-3.06v-6.48a2.9 2.9 0 0 0-3.06-3.06h-3.24a2.9 2.9 0 0 0-3.06 3.06v6.48a2.9 2.9 0 0 0 3.06 3.06zm-.18-1.87H330a1.02 1.02 0 0 1-1.07-1.08v-6.7a1.02 1.02 0 0 1 1.08-1.08h2.9a1.02 1.02 0 0 1 1.07 1.08v6.7a1.02 1.02 0 0 1-1.08 1.08zm14.03-10.73h-7.74V72h7.9v-1.87h-5.75V66.6h5.22v-1.87h-5.22v-3.46h5.58zM351.8 72v-8.62h.06l4.97 8.62H359V59.4h-2.17v8.62h-.07l-4.97-8.62h-2.17V72zm18-12.6h-7.75V72h7.92v-1.87h-5.76V66.6h5.23v-1.87h-5.22v-3.46h5.6zm9.5 12.6h2.37l-2.6-4.95a2.9 2.9 0 0 0 2.24-2.97v-1.62a2.9 2.9 0 0 0-3.05-3.06h-5.76V72h2.15v-4.86h2.1zm-4.65-10.73h3.42a1.02 1.02 0 0 1 1.08 1.08v1.84a1.02 1.02 0 0 1-1.08 1.07h-3.42zM393 65.63h-4.67v1.87h2.52v1.55a1.02 1.02 0 0 1-1.08 1.08h-2.52a1.02 1.02 0 0 1-1.08-1.08v-6.7a1.02 1.02 0 0 1 1.08-1.08h2.52a1.02 1.02 0 0 1 1.08 1.08v.88H393v-.77a2.9 2.9 0 0 0-3.05-3.06h-2.88a2.9 2.9 0 0 0-3.06 3.06v6.48a2.9 2.9 0 0 0 3.07 3.06h2.88a2.9 2.9 0 0 0 3.06-3.06zm10.8-6.23h-7.73V72H404v-1.87h-5.77V66.6h5.22v-1.87h-5.22v-3.46h5.58zm5.23 12.6h2.16V61.27h3.6V59.4h-9.37v1.87h3.6zm9.9-12.6h-2.16V72h2.16zm8.08 5.3l4.15-5.3h-2.36l-4.5 5.76h-.1V59.4h-2.16V72h2.16v-3.7l1.4-1.77 3.54 5.47h2.6zm10.16-.13l-2.8-5.17h-2.47l4.08 7.25V72h2.16v-5.35l4.28-7.25h-2.25l-2.93 5.17z"/><path fill="#003da6" d="M269.98 43.05a1.02 1.02 0 0 1-1.08 1.08h-2.88a1.02 1.02 0 0 1-1.08-1.08V33.4h-2.16v9.54a2.9 2.9 0 0 0 3.06 3.06h3.24a2.9 2.9 0 0 0 3.06-3.06V33.4h-2.16zm-2.12-10.24l2.2-2.37h-2.37l-1.52 2.38zm12.92 7.8a1.02 1.02 0 0 1 1.08 1.08v1.37a1.02 1.02 0 0 1-1.08 1.08h-2.52a1.02 1.02 0 0 1-1.08-1.08v-.88h-2.16v.77a2.9 2.9 0 0 0 3.06 3.06h2.88a2.9 2.9 0 0 0 3.06-3.06V41.8a2.9 2.9 0 0 0-3.06-3.07h-2.52a1.02 1.02 0 0 1-1.08-1.08v-1.3a1.02 1.02 0 0 1 1.08-1.08h2.25a1.02 1.02 0 0 1 1.07 1.08v.88h2.16v-.77a2.9 2.9 0 0 0-3.06-3.06h-2.6a2.9 2.9 0 0 0-3.07 3.06v1.08a2.9 2.9 0 0 0 3.06 3.06zm8.64 5.4h2.16V35.27h3.6V33.4h-9.36v1.87h3.6zm11.8-12.6h-2.24L294.64 46h2.05l1.05-3.2h4.5l1.05 3.2h2.25zm.4 7.54h-3.25l1.6-4.77h.07zm7.82 5.06h2.23l4.07-12.6h-2.06l-3 9.6h-.07l-2.98-9.6h-2.25z"/></g></svg>